REM DIRINDEX 1\4,1\2\5,1\2\6,1\3\7,1\3\8
REM DIRNAME cjc124,folder01,folder02,folder03,folder04,folder05,folder06,folder07
TITLE ""
FILE "090_Day45_Check3_Sentences 1.mp3" MP3
  TRACK 01 AUDIO
    TITLE "0:"
    INDEX 01 00:00:00
  TRACK 02 AUDIO
    TITLE "4:cjc124_2940"
    INDEX 01 00:00:25
  TRACK 03 AUDIO
    TITLE "0:"
    INDEX 01 00:02:00
  TRACK 04 AUDIO
    TITLE "7:cjc124_2941"
    INDEX 01 00:02:49
  TRACK 05 AUDIO
    TITLE "0:"
    INDEX 01 00:05:20
  TRACK 06 AUDIO
    TITLE "8:cjc124_2942"
    INDEX 01 00:05:48
  TRACK 07 AUDIO
    TITLE "0:"
    INDEX 01 00:08:13
  TRACK 08 AUDIO
    TITLE "7:cjc124_2943"
    INDEX 01 00:08:48
  TRACK 09 AUDIO
    TITLE "0:"
    INDEX 01 00:12:24
  TRACK 10 AUDIO
    TITLE "8:cjc124_2944"
    INDEX 01 00:12:42
  TRACK 11 AUDIO
    TITLE "0:"
    INDEX 01 00:15:62
  TRACK 12 AUDIO
    TITLE "7:cjc124_2945"
    INDEX 01 00:16:24
  TRACK 13 AUDIO
    TITLE "0:"
    INDEX 01 00:18:56
  TRACK 14 AUDIO
    TITLE "8:cjc124_2946"
    INDEX 01 00:18:72
  TRACK 15 AUDIO
    TITLE "0:"
    INDEX 01 00:21:58
  TRACK 16 AUDIO
    TITLE "7:cjc124_2947"
    INDEX 01 00:22:21
  TRACK 17 AUDIO
    TITLE "0:"
    INDEX 01 00:25:35
  TRACK 18 AUDIO
    TITLE "8:cjc124_2948"
    INDEX 01 00:25:50
  TRACK 19 AUDIO
    TITLE "0:"
    INDEX 01 00:29:05
  TRACK 20 AUDIO
    TITLE "7:cjc124_2949"
    INDEX 01 00:29:40
  TRACK 21 AUDIO
    TITLE "0:"
    INDEX 01 00:32:66
  TRACK 22 AUDIO
    TITLE "8:cjc124_2950"
    INDEX 01 00:33:07
  TRACK 23 AUDIO
    TITLE "0:"
    INDEX 01 00:36:03
  TRACK 24 AUDIO
    TITLE "7:cjc124_2951"
    INDEX 01 00:36:42
  TRACK 25 AUDIO
    TITLE "0:"
    INDEX 01 00:39:23
  TRACK 26 AUDIO
    TITLE "8:cjc124_2952"
    INDEX 01 00:39:39
  TRACK 27 AUDIO
    TITLE "0:"
    INDEX 01 00:42:12
  TRACK 28 AUDIO
    TITLE "7:cjc124_2953"
    INDEX 01 00:42:51
  TRACK 29 AUDIO
    TITLE "0:"
    INDEX 01 00:45:61
  TRACK 30 AUDIO
    TITLE "8:cjc124_2954"
    INDEX 01 00:46:02
  TRACK 31 AUDIO
    TITLE "0:"
    INDEX 01 00:48:38
  TRACK 32 AUDIO
    TITLE "7:cjc124_2955"
    INDEX 01 00:49:00
  TRACK 33 AUDIO
    TITLE "0:"
    INDEX 01 00:51:40
  TRACK 34 AUDIO
    TITLE "8:cjc124_2956"
    INDEX 01 00:51:56
  TRACK 35 AUDIO
    TITLE "0:"
    INDEX 01 00:54:01
  TRACK 36 AUDIO
    TITLE "7:cjc124_2957"
    INDEX 01 00:54:40
  TRACK 37 AUDIO
    TITLE "0:"
    INDEX 01 00:55:67
  TRACK 38 AUDIO
    TITLE "8:cjc124_2958"
    INDEX 01 00:56:18
  TRACK 39 AUDIO
    TITLE "0:"
    INDEX 01 00:58:05
  TRACK 40 AUDIO
    TITLE "7:cjc124_2959"
    INDEX 01 00:58:40
  TRACK 41 AUDIO
    TITLE "0:"
    INDEX 01 01:00:27
  TRACK 42 AUDIO
    TITLE "8:cjc124_2960"
    INDEX 01 01:00:43
  TRACK 43 AUDIO
    TITLE "0:"
    INDEX 01 01:02:55
  TRACK 44 AUDIO
    TITLE "7:cjc124_2961"
    INDEX 01 01:03:16
  TRACK 45 AUDIO
    TITLE "0:"
    INDEX 01 01:05:44
  TRACK 46 AUDIO
    TITLE "8:cjc124_2962"
    INDEX 01 01:05:62
  TRACK 47 AUDIO
    TITLE "0:"
    INDEX 01 01:08:19
  TRACK 48 AUDIO
    TITLE "7:cjc124_2963"
    INDEX 01 01:08:54
  TRACK 49 AUDIO
    TITLE "0:"
    INDEX 01 01:11:11
  TRACK 50 AUDIO
    TITLE "8:cjc124_2964"
    INDEX 01 01:11:31
  TRACK 51 AUDIO
    TITLE "0:"
    INDEX 01 01:14:57
  TRACK 52 AUDIO
    TITLE "7:cjc124_2965"
    INDEX 01 01:15:19
  TRACK 53 AUDIO
    TITLE "0:"
    INDEX 01 01:18:47
  TRACK 54 AUDIO
    TITLE "8:cjc124_2966"
    INDEX 01 01:18:64
  TRACK 55 AUDIO
    TITLE "0:"
    INDEX 01 01:23:38
  TRACK 56 AUDIO
    TITLE "7:cjc124_2967"
    INDEX 01 01:24:02
  TRACK 57 AUDIO
    TITLE "0:"
    INDEX 01 01:27:42
  TRACK 58 AUDIO
    TITLE "8:cjc124_2968"
    INDEX 01 01:27:57
  TRACK 59 AUDIO
    TITLE "0:"
    INDEX 01 01:30:42
  TRACK 60 AUDIO
    TITLE "7:cjc124_2969"
    INDEX 01 01:31:04
  TRACK 61 AUDIO
    TITLE "0:"
    INDEX 01 01:33:68
  TRACK 62 AUDIO
    TITLE "8:cjc124_2970"
    INDEX 01 01:34:08
  TRACK 63 AUDIO
    TITLE "0:"
    INDEX 01 01:37:21
  TRACK 64 AUDIO
    TITLE "7:cjc124_2971"
    INDEX 01 01:37:54
  TRACK 65 AUDIO
    TITLE "0:"
    INDEX 01 01:39:72
  TRACK 66 AUDIO
    TITLE "8:cjc124_2972"
    INDEX 01 01:40:11
  TRACK 67 AUDIO
    TITLE "0:"
    INDEX 01 01:42:59
